<svg xmlns:xlink="http://www.w3.org/1999/xlink" fill="none" viewBox="0 0 32 32" id="cart-icon-new" xmlns="http://www.w3.org/2000/svg" width="32"  height="32" ><path fill-rule="evenodd" clip-rule="evenodd" d="M7.608 7.737h-3.18V6h3.81c.377 0 .715.226.847.566l3.568 9.223 11.277-1.007 1.891-7.006 1.75.436-2.05 7.596a.895.895 0 01-.792.647l-11.945 1.067-.447.857H24.06v1.737H10.873a.913.913 0 01-.77-.412.839.839 0 01-.039-.845l1.06-2.033-3.517-9.09zm3.735 16.526c.457 0 .828-.356.828-.795 0-.44-.37-.796-.828-.796-.458 0-.829.357-.829.796 0 .44.371.795.829.795zm0 1.737c1.456 0 2.637-1.134 2.637-2.532 0-1.399-1.18-2.532-2.637-2.532s-2.637 1.133-2.637 2.532c0 1.398 1.18 2.532 2.637 2.532zm10.322-2.532c0 .44-.371.795-.829.795-.457 0-.828-.356-.828-.795 0-.44.37-.796.828-.796.458 0 .829.357.829.796zm1.808 0c0 1.398-1.18 2.532-2.637 2.532-1.456 0-2.637-1.134-2.637-2.532 0-1.399 1.18-2.532 2.637-2.532s2.637 1.133 2.637 2.532z" fill="#000"></path></svg>